<?xml version="1.0" standalone="no"?>
<!-- Generator: Adobe Fireworks 10, Export SVG Extension by Aaron Beall (http://fireworks.abeall.com) . Version: 0.6.1  -->
<!DOCTYPE svg PUBLIC "-//W3C//DTD SVG 1.1//EN" "http://www.w3.org/Graphics/SVG/1.1/DTD/svg11.dtd">
<svg id="Untitled-P%E1gina%201" viewBox="0 0 274 50" style="background-color:#ffffff00" version="1.1"
	xmlns="http://www.w3.org/2000/svg" xmlns:xlink="http://www.w3.org/1999/xlink" xml:space="preserve"
	x="0px" y="0px" width="274px" height="50px"
>
	<g>
		<rect id="st0" x="147.7152" y="47.9657" width="125.8803" height="0.6764" fill="#f2ae51"/>
		<g>
			<path id="st1" d="M 0.0614 0 C 4.3619 0 8.6623 0 13.0242 0 C 13.0242 16.2345 13.0242 32.4076 13.0242 48.6421 C 12.9013 48.6421 12.8399 48.6421 12.717 48.6421 C 8.5395 48.6421 4.4233 48.6421 0.2457 48.6421 C 0.1843 48.6421 0.1229 48.6421 0 48.6421 C 0.0614 32.4691 0.0614 16.2345 0.0614 0 L 0.0614 0 Z" fill="#000000"/>
			<path d="M 160.0381 0.0615 C 159.3623 1.7833 158.6865 3.5052 158.0107 5.1655 C 152.9117 17.7719 147.874 30.4397 142.7748 43.0461 C 142.0376 44.8295 141.3619 46.6128 140.6246 48.3961 C 140.5632 48.6421 140.4404 48.7651 140.1331 48.7651 C 126.3103 48.7651 112.4874 48.7651 98.6031 48.7651 C 98.5417 48.7651 98.4803 48.7651 98.3574 48.7651 C 98.726 48.2731 99.0946 47.8427 99.4018 47.4122 C 100.8148 45.5674 102.1664 43.7226 103.0879 41.5703 C 105.6067 35.6668 104.9309 30.0093 101.3063 24.7823 C 99.5861 22.261 97.4359 20.2317 94.6713 18.8788 C 94.3641 18.7558 94.0569 18.6328 93.7498 18.4483 C 94.3027 17.4029 94.9171 16.419 95.47 15.3736 C 98.2345 10.4541 101.0605 5.473 103.8251 0.5534 C 104.0094 0.246 104.1323 0.1845 104.5009 0.1845 C 122.8085 0.1845 141.1161 0.1845 159.4238 0.1845 C 159.6695 0.0615 159.7923 0.0615 160.0381 0.0615 L 160.0381 0.0615 Z" fill="#000000"/>
			<path d="M 53.2641 48.6421 C 42.0829 48.6421 30.9632 48.6421 19.7821 48.6421 C 19.7821 32.4691 19.7821 16.2345 19.7821 0 C 19.9049 0 20.0278 0 20.1507 0 C 24.9426 0 29.796 0 34.5879 0 C 34.8951 0 35.0179 0.0615 35.1408 0.369 C 41.1 16.296 47.1206 32.2846 53.0798 48.2116 C 53.2027 48.3961 53.2027 48.5191 53.2641 48.6421 L 53.2641 48.6421 Z" fill="#000000"/>
			<path id="st02" d="M 85.6659 20.6621 C 88.5534 21.0926 91.0722 22.138 93.2838 23.9828 C 96.0484 26.2581 97.7686 29.1484 98.1372 32.7151 C 98.6287 37.4501 97.4 41.7547 94.0825 45.3214 C 92.1166 47.4122 89.5978 48.7036 86.7717 49.3801 C 82.9013 50.3025 79.0309 50.241 75.2834 48.8881 C 70.8601 47.2892 67.9112 44.276 66.7439 39.6024 C 66.4368 38.4955 66.3753 37.3271 66.191 36.0973 C 66.4368 36.0973 66.5597 36.0357 66.6825 36.0357 C 68.7713 36.0357 70.9215 36.0357 73.0103 36.0357 C 73.3175 36.0357 73.4404 36.0973 73.4404 36.4662 C 73.7475 40.6478 76.8807 43.5996 81.0583 43.7226 C 82.7785 43.7841 84.4986 43.5996 86.096 42.8616 C 88.8605 41.6318 90.3349 39.418 90.7036 36.5277 C 91.0107 34.5599 90.765 32.5921 89.7821 30.8087 C 88.6148 28.5949 86.6489 27.3035 84.2529 26.6271 C 82.9628 26.2581 81.6112 26.1351 80.2596 26.1351 C 78.5395 26.1351 76.8192 26.1351 75.0991 26.1351 C 74.9148 26.1351 74.7919 26.1351 74.5462 26.1351 C 78.3551 19.3708 82.1027 12.7908 85.9117 6.088 C 82.4713 6.088 79.0924 6.088 75.652 6.088 C 75.9592 5.35 76.2049 4.6736 76.4507 3.9971 C 76.9421 2.8287 77.3722 1.5989 77.8637 0.369 C 77.9251 0.123 78.0479 0 78.3551 0 C 84.5601 0 90.7036 0 96.9085 0 C 96.9699 0 96.9699 0 97.0928 0 C 93.3453 6.8874 89.5363 13.7133 85.6659 20.6621 L 85.6659 20.6621 Z" fill="#f2ae51"/>
			<path d="M 42.2673 0 C 52.2197 0 62.1108 0 72.0632 0 C 67.087 13.4673 62.1722 26.9346 57.2574 40.4018 C 57.196 40.4018 57.1345 40.4018 57.1345 40.4018 C 52.1583 26.9346 47.2435 13.4673 42.2673 0 L 42.2673 0 Z" fill="#000000"/>
		</g>
		<g>
			<path d="M 159.6695 32.7766 L 157.0892 38.2495 L 162.2498 38.2495 L 159.6695 32.7766 L 159.6695 32.7766 ZM 159.8538 29.5788 L 166.8574 44.645 L 165.2601 44.645 L 162.8641 39.6639 L 156.352 39.6639 L 154.0175 44.645 L 152.3588 44.645 L 159.4852 29.5788 L 159.8538 29.5788 L 159.8538 29.5788 Z" fill="#000000"/>
			<path d="M 168.5162 33.5145 L 169.9906 33.5145 L 169.9906 35.1748 C 170.4206 34.5599 170.912 34.0679 171.4036 33.7605 C 171.8951 33.453 172.3865 33.2685 172.9395 33.2685 C 173.308 33.2685 173.7381 33.3915 174.2296 33.6375 L 173.4924 34.8673 C 173.1852 34.7443 172.9395 34.6829 172.7551 34.6829 C 172.2637 34.6829 171.8336 34.8673 171.3422 35.2978 C 170.912 35.6668 170.5435 36.2817 170.2977 37.1426 C 170.1135 37.7576 170.052 39.049 170.052 41.0168 L 170.052 44.768 L 168.5775 44.768 L 168.5775 33.5145 L 168.5162 33.5145 Z" fill="#000000"/>
			<path d="M 180.0045 34.6214 C 179.2058 34.6214 178.4686 34.8059 177.7928 35.2363 C 177.1171 35.6053 176.5641 36.1587 176.1955 36.8967 C 175.8269 37.6346 175.5811 38.3725 175.5811 39.172 C 175.5811 39.9714 175.7655 40.7093 176.1955 41.4472 C 176.6256 42.1852 177.1171 42.7386 177.7928 43.1076 C 178.4686 43.4766 179.2058 43.7226 180.0045 43.7226 C 180.8031 43.7226 181.5404 43.5381 182.2161 43.1076 C 182.8919 42.7386 183.4448 42.1852 183.8134 41.5088 C 184.1821 40.8323 184.3664 40.0944 184.3664 39.2335 C 184.3664 37.9421 183.9363 36.8352 183.0763 35.9743 C 182.2776 35.0518 181.2332 34.6214 180.0045 34.6214 L 180.0045 34.6214 ZM 185.7179 33.5145 L 185.7179 48.7651 L 184.305 48.7651 L 184.305 42.7386 C 183.6906 43.4766 183.0148 44.03 182.2776 44.399 C 181.5404 44.768 180.7417 44.9524 179.8201 44.9524 C 178.2229 44.9524 176.8713 44.399 175.7655 43.2306 C 174.6596 42.0622 174.1068 40.7093 174.1068 39.049 C 174.1068 37.4501 174.6596 36.0972 175.8269 34.9289 C 176.9327 33.7605 178.2843 33.207 179.8816 33.207 C 180.8031 33.207 181.6018 33.3915 182.339 33.7605 C 183.0763 34.1294 183.752 34.7443 184.305 35.5438 L 184.305 33.5145 L 185.7179 33.5145 L 185.7179 33.5145 Z" fill="#000000"/>
			<path d="M 188.5439 33.5145 L 189.9569 33.5145 L 189.9569 38.7415 C 189.9569 40.0329 190.0184 40.8938 190.1412 41.3858 C 190.3256 42.0622 190.7556 42.6156 191.3085 42.9846 C 191.8614 43.3536 192.5987 43.5996 193.3973 43.5996 C 194.1959 43.5996 194.8717 43.4151 195.4247 43.0461 C 195.9776 42.6771 196.3462 42.1237 196.5919 41.5088 C 196.7148 41.0783 196.8376 40.1559 196.8376 38.7415 L 196.8376 33.5145 L 198.3121 33.5145 L 198.3121 38.9875 C 198.3121 40.5248 198.1278 41.6932 197.7592 42.4927 C 197.3906 43.2921 196.8376 43.907 196.1619 44.3375 C 195.4247 44.768 194.5645 45.0139 193.4587 45.0139 C 192.3529 45.0139 191.4928 44.768 190.7556 44.3375 C 190.0184 43.907 189.4654 43.2921 189.0968 42.4927 C 188.7282 41.6932 188.5439 40.5248 188.5439 38.926 L 188.5439 33.5145 L 188.5439 33.5145 Z" fill="#000000"/>
			<path d="M 201.0767 33.5145 L 202.4896 33.5145 L 202.4896 44.645 L 201.0767 44.645 L 201.0767 33.5145 L 201.0767 33.5145 ZM 201.8139 28.9024 C 202.1211 28.9024 202.4283 29.0254 202.674 29.2714 C 202.9198 29.5173 203.0426 29.7633 203.0426 30.1323 C 203.0426 30.4397 202.9198 30.7472 202.674 30.9932 C 202.4283 31.2392 202.1825 31.3622 201.8139 31.3622 C 201.5067 31.3622 201.1996 31.2392 201.0152 30.9932 C 200.7695 30.7472 200.6466 30.5013 200.6466 30.1323 C 200.6466 29.8248 200.7695 29.5173 201.0152 29.2714 C 201.1996 29.0254 201.5067 28.9024 201.8139 28.9024 L 201.8139 28.9024 Z" fill="#000000"/>
			<path d="M 206.36 29.3943 L 207.7731 29.3943 L 207.7731 33.5145 L 210.0462 33.5145 L 210.0462 34.7443 L 207.7731 34.7443 L 207.7731 44.645 L 206.36 44.645 L 206.36 34.7443 L 204.3941 34.7443 L 204.3941 33.5145 L 206.36 33.5145 L 206.36 29.3943 L 206.36 29.3943 Z" fill="#000000"/>
			<path d="M 220.7973 37.9421 C 220.613 37.2041 220.3058 36.5892 219.9372 36.0972 C 219.5686 35.6668 219.0771 35.2978 218.4628 34.9903 C 217.8484 34.6829 217.2341 34.5599 216.5582 34.5599 C 215.4525 34.5599 214.5309 34.9289 213.7322 35.6053 C 213.1794 36.0972 212.7493 36.8967 212.4421 37.9421 L 220.7973 37.9421 L 220.7973 37.9421 ZM 220.7973 40.9553 L 222.0259 41.5703 C 221.6574 42.3697 221.1659 42.9846 220.6744 43.4766 C 220.1829 43.9685 219.5686 44.3375 218.8928 44.5835 C 218.217 44.8295 217.4799 44.9524 216.6812 44.9524 C 214.8381 44.9524 213.4251 44.3375 212.4421 43.1691 C 211.3977 42.0007 210.9063 40.6478 210.9063 39.1105 C 210.9063 37.6961 211.3363 36.4047 212.1964 35.2978 C 213.3022 33.8834 214.7766 33.207 216.6197 33.207 C 218.5242 33.207 220.0601 33.9449 221.1659 35.3593 C 221.9646 36.4047 222.3946 37.6346 222.3946 39.172 L 212.3807 39.172 C 212.3807 40.4633 212.8108 41.5088 213.6093 42.3697 C 214.408 43.1691 215.391 43.5996 216.5582 43.5996 C 217.1112 43.5996 217.6642 43.4766 218.217 43.2921 C 218.7699 43.1076 219.2 42.8616 219.5686 42.4927 C 219.9372 42.2467 220.3672 41.6932 220.7973 40.9553 L 220.7973 40.9553 Z" fill="#000000"/>
			<path d="M 235.5417 35.8513 L 234.3745 36.5892 C 233.3914 35.2978 232.0399 34.6214 230.3812 34.6214 C 229.0296 34.6214 227.9238 35.0518 227.0023 35.9128 C 226.0807 36.7737 225.6506 37.8191 225.6506 39.1105 C 225.6506 39.9099 225.835 40.7093 226.265 41.3858 C 226.695 42.1237 227.248 42.6771 227.9852 43.0461 C 228.7225 43.4151 229.5211 43.6611 230.3812 43.6611 C 232.0399 43.6611 233.33 42.9846 234.3745 41.6932 L 235.5417 42.4312 C 234.9888 43.2306 234.313 43.8455 233.3914 44.276 C 232.4699 44.7065 231.487 44.9524 230.3197 44.9524 C 228.5381 44.9524 227.1251 44.399 225.9578 43.2921 C 224.7906 42.1852 224.2377 40.8323 224.2377 39.172 C 224.2377 38.0651 224.4834 37.0812 225.0363 36.1587 C 225.5892 35.2363 226.3264 34.4984 227.248 34.0064 C 228.1695 33.5145 229.2753 33.207 230.4426 33.207 C 231.1798 33.207 231.917 33.33 232.5928 33.5145 C 233.2686 33.7605 233.8829 34.0064 234.313 34.3754 C 234.8044 34.8059 235.1731 35.2978 235.5417 35.8513 L 235.5417 35.8513 Z" fill="#000000"/>
			<path d="M 238.9205 29.3943 L 240.3336 29.3943 L 240.3336 33.5145 L 242.6067 33.5145 L 242.6067 34.7443 L 240.3336 34.7443 L 240.3336 44.645 L 238.9205 44.645 L 238.9205 34.7443 L 236.9547 34.7443 L 236.9547 33.5145 L 238.9205 33.5145 L 238.9205 29.3943 L 238.9205 29.3943 Z" fill="#000000"/>
			<path d="M 244.3269 33.5145 L 245.7399 33.5145 L 245.7399 38.7415 C 245.7399 40.0329 245.8013 40.8938 245.9242 41.3858 C 246.1086 42.0622 246.5386 42.6156 247.0914 42.9846 C 247.6443 43.3536 248.3816 43.5996 249.1802 43.5996 C 249.9789 43.5996 250.6547 43.4151 251.2076 43.0461 C 251.7605 42.6771 252.1292 42.1237 252.3748 41.5088 C 252.4977 41.0783 252.6206 40.1559 252.6206 38.7415 L 252.6206 33.5145 L 254.095 33.5145 L 254.095 38.9875 C 254.095 40.5248 253.9108 41.6932 253.5421 42.4927 C 253.1735 43.2921 252.6206 43.907 251.9448 44.3375 C 251.2076 44.768 250.3475 45.0139 249.2417 45.0139 C 248.1359 45.0139 247.2758 44.768 246.5386 44.3375 C 245.8013 43.907 245.2484 43.2921 244.8798 42.4927 C 244.5112 41.6932 244.3269 40.5248 244.3269 38.926 L 244.3269 33.5145 L 244.3269 33.5145 Z" fill="#000000"/>
			<path d="M 256.7982 33.5145 L 258.2726 33.5145 L 258.2726 35.1748 C 258.7027 34.5599 259.1942 34.0679 259.6856 33.7605 C 260.1772 33.453 260.6686 33.2685 261.2215 33.2685 C 261.5901 33.2685 262.0202 33.3915 262.5117 33.6375 L 261.7744 34.8673 C 261.4672 34.7443 261.2215 34.6829 261.0372 34.6829 C 260.5457 34.6829 260.1157 34.8673 259.6242 35.2978 C 259.1942 35.6668 258.8256 36.2817 258.5798 37.1426 C 258.3955 37.7576 258.3341 39.049 258.3341 41.0168 L 258.3341 44.768 L 256.8596 44.768 L 256.8596 33.5145 L 256.7982 33.5145 Z" fill="#000000"/>
			<path d="M 268.2865 34.6214 C 267.4879 34.6214 266.7506 34.8059 266.0749 35.2363 C 265.3991 35.6053 264.8462 36.1587 264.4776 36.8967 C 264.1089 37.6346 263.8632 38.3725 263.8632 39.172 C 263.8632 39.9714 264.0475 40.7093 264.4776 41.4472 C 264.9076 42.1852 265.3991 42.7386 266.0749 43.1076 C 266.7506 43.4766 267.4879 43.7226 268.2865 43.7226 C 269.0852 43.7226 269.8224 43.5381 270.4981 43.1076 C 271.174 42.7386 271.7269 42.1852 272.0955 41.5088 C 272.4641 40.8323 272.6484 40.0944 272.6484 39.2335 C 272.6484 37.9421 272.2184 36.8352 271.3582 35.9743 C 270.5596 35.0518 269.5152 34.6214 268.2865 34.6214 L 268.2865 34.6214 ZM 274 33.5145 L 274 44.645 L 272.5869 44.645 L 272.5869 42.7386 C 271.9726 43.4766 271.2968 44.03 270.5596 44.399 C 269.8224 44.768 269.0237 44.9524 268.1022 44.9524 C 266.5049 44.9524 265.1534 44.399 264.0475 43.2306 C 262.9417 42.0622 262.3887 40.7093 262.3887 39.049 C 262.3887 37.4501 262.9417 36.0972 264.1089 34.9289 C 265.2147 33.7605 266.5663 33.207 268.1636 33.207 C 269.0852 33.207 269.8838 33.3915 270.6211 33.7605 C 271.3582 34.1294 272.034 34.7443 272.5869 35.5438 L 272.5869 33.5145 L 274 33.5145 L 274 33.5145 Z" fill="#000000"/>
		</g>
	</g>
</svg>